<?xml version="1.0" encoding="UTF-8"?>
<svg width="800" height="800" version="1.1" viewBox="0 0 800 800" xmlns="http://www.w3.org/2000/svg">
 <g fill="#ffffff">
  <path d="m400 150c-22.5 0-40.7 18.2-40.7 40.7v118.6h-118.6c-22.5 0-40.7 18.2-40.7 40.7s18.2 40.7 40.7 40.7h118.6v118.6c0 22.5 18.2 40.7 40.7 40.7s40.7-18.2 40.7-40.7v-118.6h118.6c22.5 0 40.7-18.2 40.7-40.7s-18.2-40.7-40.7-40.7h-118.6v-118.6c0-22.5-18.2-40.7-40.7-40.7z"/>
  <path d="m150 300c-22.5 0-40.7 18.2-40.7 40.7v118.6h-40.7c-22.5 0-40.7 18.2-40.7 40.7s18.2 40.7 40.7 40.7h81.4c22.5 0 40.7-18.2 40.7-40.7v-159.3c0-22.5-18.2-40.7-40.7-40.7z"/>
  <path d="m650 300c22.5 0 40.7 18.2 40.7 40.7v118.6h40.7c22.5 0 40.7 18.2 40.7 40.7s-18.2 40.7-40.7 40.7h-81.4c-22.5 0-40.7-18.2-40.7-40.7v-159.3c0-22.5 18.2-40.7 40.7-40.7z"/>
 </g>
</svg> 